<svg width="64" height="64" viewBox="0 0 64 64" xmlns="http://www.w3.org/2000/svg">
  <defs>
    <linearGradient id="grad" x1="0" y1="0" x2="1" y2="1">
      <stop offset="0%" stop-color="#0f172a" />
      <stop offset="100%" stop-color="#3b82f6" />
    </linearGradient>
  </defs>
  <rect width="64" height="64" rx="12" fill="#e0e7ff" />
  <path
    d="M35.5 18.5c-6.9-.3-12 4.7-12 11.5 0 9.6 8.9 13 13.5 19.5 3.5 4.6 5 8.4 5 14 0 0 8-2 8-11 0-10-5-22-9.5-34z"
    fill="url(#grad)"
    opacity="0.95"
  />
  <circle cx="32" cy="32" r="12" fill="#f8fafc" />
  <path
    d="M24 30c0-4.4 3.6-8 8-8s8 3.6 8 8-3.6 8-8 8-8-3.6-8-8z"
    fill="#1e293b"
  />
</svg>
